<?xml version="1.0" encoding="UTF-8"?>
<svg version="1.1" xmlns="http://www.w3.org/2000/svg" width="512" height="512">
<path d="M0 0 C1.21042969 1.03060547 1.21042969 1.03060547 2.4453125 2.08203125 C27.35473912 23.83016978 41.43674645 52.56536261 43.75 85.5 C44.99630687 109.04549803 39.71815374 131.54917189 28 152 C27.44570313 152.98097656 26.89140625 153.96195313 26.3203125 154.97265625 C10.5232211 181.2381551 -15.35520255 199.94786681 -44.76953125 207.9921875 C-75.97403122 215.69543722 -109.52601591 211.50222594 -137.1875 194.9375 C-142.34730054 191.55467159 -147.27933604 187.97216229 -152 184 C-152.78761719 183.34644531 -153.57523438 182.69289063 -154.38671875 182.01953125 C-176.5484272 162.91940889 -189.81033408 136.85261269 -194 108 C-195.1665165 84.30557542 -195.0183578 57.36186049 -181 37 C-178.62839513 35.33987659 -177.58446301 34.90855341 -174.703125 35.359375 C-171.68177117 35.23867588 -171.68177117 35.23867588 -169.2890625 32.25390625 C-168.37704912 31.04111363 -167.48985858 29.80935764 -166.625 28.5625 C-166.17020264 27.92231934 -165.71540527 27.28213867 -165.24682617 26.62255859 C-163.35068979 23.77207304 -162.05330357 21.80429161 -161.82421875 18.34765625 C-162.1431288 16.8959777 -162.48342452 15.44878768 -162.84765625 14.0078125 C-163.06450977 11.14979426 -162.07669626 10.16151993 -160.25 8 C-158.87164751 6.62709555 -157.45073181 5.2961865 -156 4 C-154.78183594 2.90171875 -154.78183594 2.90171875 -153.5390625 1.78125 C-136.28224365 -12.99585001 -114.62121135 -23.12274066 -92 -26 C-90.58460938 -26.18369141 -90.58460938 -26.18369141 -89.140625 -26.37109375 C-57.63763399 -29.60934536 -24.15674881 -21.01181358 0 0 Z " fill="#FDCE63" transform="translate(332,298)"/>
<path d="M0 0 C1.21042969 1.03060547 1.21042969 1.03060547 2.4453125 2.08203125 C27.35473912 23.83016978 41.43674645 52.56536261 43.75 85.5 C44.99630687 109.04549803 39.71815374 131.54917189 28 152 C27.44570313 152.98097656 26.89140625 153.96195313 26.3203125 154.97265625 C10.5232211 181.2381551 -15.35520255 199.94786681 -44.76953125 207.9921875 C-75.97403122 215.69543722 -109.52601591 211.50222594 -137.1875 194.9375 C-142.34730054 191.55467159 -147.27933604 187.97216229 -152 184 C-152.78761719 183.34644531 -153.57523438 182.69289063 -154.38671875 182.01953125 C-176.5484272 162.91940889 -189.81033408 136.85261269 -194 108 C-195.1665165 84.30557542 -195.0183578 57.36186049 -181 37 C-178.62839513 35.33987659 -177.58446301 34.90855341 -174.703125 35.359375 C-171.68177117 35.23867588 -171.68177117 35.23867588 -169.2890625 32.25390625 C-168.37704912 31.04111363 -167.48985858 29.80935764 -166.625 28.5625 C-166.17020264 27.92231934 -165.71540527 27.28213867 -165.24682617 26.62255859 C-163.35068979 23.77207304 -162.05330357 21.80429161 -161.82421875 18.34765625 C-162.1431288 16.8959777 -162.48342452 15.44878768 -162.84765625 14.0078125 C-163.06450977 11.14979426 -162.07669626 10.16151993 -160.25 8 C-158.87164751 6.62709555 -157.45073181 5.2961865 -156 4 C-154.78183594 2.90171875 -154.78183594 2.90171875 -153.5390625 1.78125 C-136.28224365 -12.99585001 -114.62121135 -23.12274066 -92 -26 C-90.58460938 -26.18369141 -90.58460938 -26.18369141 -89.140625 -26.37109375 C-57.63763399 -29.60934536 -24.15674881 -21.01181358 0 0 Z M-133 29 C-133.74636719 29.64582031 -134.49273437 30.29164063 -135.26171875 30.95703125 C-148.79902467 43.59007705 -155.92316712 60.2710037 -160 78 C-160.29197266 79.22783203 -160.29197266 79.22783203 -160.58984375 80.48046875 C-164.02117048 101.55861869 -157.45498454 124.45250243 -145.41015625 141.75 C-134.78628739 156.34649705 -121.38148057 165.89452757 -105 173 C-103.45892578 173.68642578 -103.45892578 173.68642578 -101.88671875 174.38671875 C-93.53541211 177.41101658 -85.17853282 177.37560836 -76.375 177.4375 C-75.1475708 177.4478125 -73.9201416 177.458125 -72.65551758 177.46875 C-64.69633506 177.39171012 -57.60837941 176.32192497 -50 174 C-48.25589844 173.47019531 -48.25589844 173.47019531 -46.4765625 172.9296875 C-23.68727576 164.50077323 -7.05837264 147.99416662 3.23828125 126.140625 C12.33851944 105.65181286 12.44006351 82.40397533 4.7265625 61.55859375 C2.41541427 55.94946333 2.41541427 55.94946333 -2 52 C-6.14776273 51.71337567 -6.14776273 51.71337567 -10 53 C-10.24363281 52.26136719 -10.48726562 51.52273438 -10.73828125 50.76171875 C-12.14367586 47.68551444 -13.74161486 46.11985713 -16.1875 43.8125 C-20.00457121 39.73825023 -20.00457121 39.73825023 -19.984375 36.4765625 C-19.80390625 35.63867188 -19.6234375 34.80078125 -19.4375 33.9375 C-18.74435733 30.20437873 -18.74435733 30.20437873 -20.34375 26.87109375 C-35.65722708 12.27186467 -58.9748096 6.55033851 -79.47119141 6.63378906 C-99.71666535 7.20690291 -117.89812206 15.88354377 -133 29 Z " fill="#FBDC7B" transform="translate(332,298)"/>
<path d="M0 0 C2.48954233 1.93167233 4.85039727 3.93800776 7.1875 6.05078125 C7.89519531 6.67726563 8.60289063 7.30375 9.33203125 7.94921875 C22.40282371 20.1952767 30.15246915 38.2670694 31.1875 56.05078125 C31.24035156 56.77136719 31.29320312 57.49195313 31.34765625 58.234375 C32.13727403 78.59278111 24.58732711 97.05429299 11.1875 112.05078125 C-1.8354949 125.91050893 -19.83588992 134.21303172 -38.79296875 135.2734375 C-60.736921 135.91700657 -80.27673669 128.67437913 -96.39453125 113.6328125 C-112.20253486 96.75221413 -117.91996374 76.91187257 -117.26171875 54.17578125 C-116.31761025 37.08133489 -108.95624738 22.8210322 -97.8125 10.05078125 C-97.29300781 9.43589844 -96.77351563 8.82101563 -96.23828125 8.1875 C-71.99029561 -18.38145152 -28.5531981 -19.78895257 0 0 Z " fill="#FBA65D" transform="translate(116.8125,74.94921875)"/>
<path d="M0 0 C1.55545532 -0.01546875 1.55545532 -0.01546875 3.14233398 -0.03125 C13.64371063 0.08845223 23.25555518 2.29911241 32.5625 7.1875 C33.24320557 7.53820557 33.92391113 7.88891113 34.62524414 8.25024414 C40.03093308 11.10752765 44.84359746 14.31084409 49.375 18.4375 C50.51001953 19.45263672 50.51001953 19.45263672 51.66796875 20.48828125 C65.84933434 33.86199788 73.31270703 52.17523923 74.5 71.46875 C75.09627695 92.04030473 67.30193571 111.57991596 53.3671875 126.57421875 C40.18851271 138.90015576 23.54434208 147.24606773 5.375 148.4375 C4.59511719 148.4890625 3.81523437 148.540625 3.01171875 148.59375 C-15.23429056 149.242497 -32.08275888 143.22621281 -46.625 132.4375 C-47.62660156 131.69693359 -47.62660156 131.69693359 -48.6484375 130.94140625 C-63.36351314 119.18932096 -71.58386052 100.95226965 -74.15234375 82.6875 C-75.85952249 64.27298777 -71.90793261 44.67429433 -60.36035156 29.80957031 C-57.30210512 26.15954766 -54.00550608 22.78835252 -50.625 19.4375 C-49.99078125 18.76976563 -49.3565625 18.10203125 -48.703125 17.4140625 C-35.93327377 4.9267301 -17.26702604 0.14220949 0 0 Z " fill="#FC7B8F" transform="translate(256.625,2.5625)"/>
<path d="M0 0 C13.43833654 3.26840544 25.04213736 9.03345018 35.3671875 18.34765625 C36.06328125 18.9509375 36.759375 19.55421875 37.4765625 20.17578125 C48.89297113 30.70719696 57.33043295 47.5140996 58.58837891 63.08569336 C59.44713197 85.42240868 56.16417408 103.83562626 41.3671875 121.34765625 C40.90828125 121.9509375 40.449375 122.55421875 39.9765625 123.17578125 C28.78872592 137.44991758 9.91100905 145.19016363 -7.6328125 147.34765625 C-29.96418137 148.66723714 -49.48375 142.24402647 -66.3828125 127.53515625 C-77.99867635 116.56278486 -85.75709326 102.06058617 -88.6328125 86.34765625 C-88.76300781 85.64253906 -88.89320313 84.93742187 -89.02734375 84.2109375 C-91.95984991 64.93459703 -86.83972118 45.19452938 -75.6328125 29.34765625 C-68.21956403 20.18444021 -59.02603347 9.98082361 -47.4453125 6.34765625 C-44.6328125 6.34765625 -44.6328125 6.34765625 -42.4453125 7.91015625 C-38.46378376 9.94515983 -35.762473 8.90091948 -31.50390625 7.96484375 C-27.56288423 7.11765806 -23.64185491 6.74198829 -19.6328125 6.34765625 C-19.5296875 5.56390625 -19.4265625 4.78015625 -19.3203125 3.97265625 C-17.29719092 -3.75198979 -5.95417094 -1.06918984 0 0 Z " fill="#7BC0EA" transform="translate(453.6328125,61.65234375)"/>
<path d="M0 0 C1.21042969 1.03060547 1.21042969 1.03060547 2.4453125 2.08203125 C27.35473912 23.83016978 41.43674645 52.56536261 43.75 85.5 C44.99630687 109.04549803 39.71815374 131.54917189 28 152 C27.44570313 152.98097656 26.89140625 153.96195313 26.3203125 154.97265625 C10.5232211 181.2381551 -15.35520255 199.94786681 -44.76953125 207.9921875 C-75.97403122 215.69543722 -109.52601591 211.50222594 -137.1875 194.9375 C-142.34730054 191.55467159 -147.27933604 187.97216229 -152 184 C-152.78761719 183.34644531 -153.57523438 182.69289063 -154.38671875 182.01953125 C-176.5484272 162.91940889 -189.81033408 136.85261269 -194 108 C-195.1672314 84.29105425 -195.00565076 57.38252527 -181 37 C-178.61780919 35.25306008 -177.45525467 34.97723727 -174.5 35.125 C-171.32308035 36.23692188 -169.95615595 37.24689163 -168 40 C-166.8839054 45.95250453 -169.23268422 50.26486918 -171.625 55.66796875 C-181.82194351 80.37817562 -180.29918753 108.25918583 -170.32397461 132.70019531 C-159.29593202 158.32235318 -138.90441747 178.11681176 -113.078125 188.53125 C-106.55350308 190.98668483 -99.81097277 192.55548354 -93 194 C-92.21109375 194.1757959 -91.4221875 194.3515918 -90.609375 194.53271484 C-64.59629998 199.19111918 -37.23332893 191.26533918 -15.6875 176.6953125 C6.48656958 160.90151766 21.34300717 136.43374214 26.4375 109.75 C28.26506977 93.83576886 27.96810971 78.26658714 23 63 C22.566875 61.45892578 22.566875 61.45892578 22.125 59.88671875 C17.81263531 45.35173956 9.74535308 33.39910997 0 22 C-0.58265625 21.31421875 -1.1653125 20.6284375 -1.765625 19.921875 C-11.36279927 9.5491715 -24.30983662 2.77984668 -37 -3 C-38.155 -3.53496094 -39.31 -4.06992187 -40.5 -4.62109375 C-44.18514493 -6.07294214 -47.67214883 -6.89880111 -51.5625 -7.625 C-52.82191406 -7.86476563 -54.08132813 -8.10453125 -55.37890625 -8.3515625 C-56.57386719 -8.56554687 -57.76882813 -8.77953125 -59 -9 C-59.92683594 -9.185625 -60.85367188 -9.37125 -61.80859375 -9.5625 C-87.59640238 -13.09767083 -113.66731008 -6.96822676 -135 7.9375 C-138.82883738 10.87591008 -142.22560429 14.14200839 -145.6875 17.5 C-151.2593149 22.67382812 -151.2593149 22.67382812 -155.4375 22.875 C-159.33928087 21.91666786 -160.85711444 21.39290213 -163 18 C-163.6875 15.25 -163.6875 15.25 -163 12 C-149.99487021 -8.23495523 -122.46586082 -19.3423688 -99.99609375 -24.71875 C-97.33423922 -25.24569646 -94.69162245 -25.65764451 -92 -26 C-90.58460938 -26.18369141 -90.58460938 -26.18369141 -89.140625 -26.37109375 C-57.63763399 -29.60934536 -24.15674881 -21.01181358 0 0 Z " fill="#010100" transform="translate(332,298)"/>
<path d="M0 0 C5.84113391 4.92625751 5.84113391 4.92625751 6.3828125 8.640625 C5.88468077 12.05638545 5.6376606 13.45309217 2.9453125 15.640625 C-2.74390597 16.75815006 -5.56159274 15.60185518 -10.3671875 12.453125 C-11.30046875 11.81503906 -12.23375 11.17695313 -13.1953125 10.51953125 C-27.9488937 0.82489661 -46.71471755 -2.96058676 -64.078125 0.2890625 C-83.99609817 5.17460309 -100.34019306 16.28327971 -111.02734375 33.890625 C-120.28393501 51.1853178 -122.67479414 69.31600678 -117.44140625 88.36328125 C-112.09704029 105.83907895 -101.33221732 120.69614314 -85.19873047 129.67333984 C-68.78434076 138.26897951 -49.30059866 141.1334337 -31.15136719 136.15356445 C-12.99776143 130.27994238 1.26571861 119.21704992 10.6953125 102.546875 C20.07730754 83.59524501 21.68350394 64.60927991 14.9453125 44.640625 C14.57921875 43.76148438 14.213125 42.88234375 13.8359375 41.9765625 C12.42161873 38.26707732 12.56198612 35.60166421 12.9453125 31.640625 C15.13284533 28.9482769 16.52955205 28.70125673 19.9453125 28.203125 C22.9453125 28.640625 22.9453125 28.640625 25.0703125 30.078125 C35.13748024 43.83658758 36.64154938 63.36378361 34.4375 79.7734375 C30.80379019 102.97969287 19.50308259 123.09390032 0.9453125 137.640625 C-19.57503656 152.36763013 -43.7975947 156.85382542 -68.73339844 153.25390625 C-73.41619885 152.25202341 -77.68481005 150.61203562 -82.0546875 148.640625 C-82.97507812 148.2391626 -82.97507812 148.2391626 -83.9140625 147.82958984 C-91.72597357 144.38565074 -98.60395229 140.24226892 -105.0546875 134.640625 C-105.85261719 133.99738281 -106.65054688 133.35414063 -107.47265625 132.69140625 C-117.71715718 124.09873183 -125.33883601 113.14395539 -130.0546875 100.640625 C-130.60576172 99.20976562 -130.60576172 99.20976562 -131.16796875 97.75 C-138.89755762 76.27579675 -137.68346132 54.03524115 -128.39453125 33.33984375 C-117.76983869 11.93557972 -100.52047314 -4.11494901 -78.0546875 -12.359375 C-51.70004353 -21.16939189 -22.36685089 -16.51459241 0 0 Z " fill="#040402" transform="translate(307.0546875,321.359375)"/>
<path d="M0 0 C2.48954233 1.93167233 4.85039727 3.93800776 7.1875 6.05078125 C7.89519531 6.67726563 8.60289063 7.30375 9.33203125 7.94921875 C22.40282371 20.1952767 30.15246915 38.2670694 31.1875 56.05078125 C31.24035156 56.77136719 31.29320312 57.49195313 31.34765625 58.234375 C32.13727403 78.59278111 24.58732711 97.05429299 11.1875 112.05078125 C-1.8354949 125.91050893 -19.83588992 134.21303172 -38.79296875 135.2734375 C-60.736921 135.91700657 -80.27673669 128.67437913 -96.39453125 113.6328125 C-112.20253486 96.75221413 -117.91996374 76.91187257 -117.26171875 54.17578125 C-116.31761025 37.08133489 -108.95624738 22.8210322 -97.8125 10.05078125 C-97.29300781 9.43589844 -96.77351563 8.82101563 -96.23828125 8.1875 C-71.99029561 -18.38145152 -28.5531981 -19.78895257 0 0 Z M-78.8125 14.05078125 C-79.67488281 14.70820312 -80.53726563 15.365625 -81.42578125 16.04296875 C-91.25993159 24.19083838 -97.22136834 34.89774247 -100.8125 47.05078125 C-101.00328125 47.66308594 -101.1940625 48.27539062 -101.390625 48.90625 C-104.82970771 66.38825377 -99.06864441 83.67839292 -89.44921875 98.09375 C-81.13290998 108.81418343 -67.84996891 116.01356825 -54.8125 119.05078125 C-35.9285587 120.78558676 -19.17108704 117.80178271 -4.1875 105.48828125 C3.77411387 98.01265458 9.97773072 88.49583156 13.1875 78.05078125 C13.41050781 77.38433594 13.63351563 76.71789062 13.86328125 76.03125 C17.80820131 61.99592216 15.53496719 46.39793306 9.1875 33.55078125 C0.66497932 18.66311436 -11.55113935 8.86202384 -28.05859375 3.7421875 C-46.33301209 -0.84585796 -63.88940825 2.62131253 -78.8125 14.05078125 Z " fill="#010100" transform="translate(116.8125,74.94921875)"/>
<path d="M0 0 C1.55545532 -0.01546875 1.55545532 -0.01546875 3.14233398 -0.03125 C13.64371063 0.08845223 23.25555518 2.29911241 32.5625 7.1875 C33.24320557 7.53820557 33.92391113 7.88891113 34.62524414 8.25024414 C40.03093308 11.10752765 44.84359746 14.31084409 49.375 18.4375 C50.51001953 19.45263672 50.51001953 19.45263672 51.66796875 20.48828125 C65.84933434 33.86199788 73.31270703 52.17523923 74.5 71.46875 C75.09627695 92.04030473 67.30193571 111.57991596 53.3671875 126.57421875 C40.18851271 138.90015576 23.54434208 147.24606773 5.375 148.4375 C4.59511719 148.4890625 3.81523437 148.540625 3.01171875 148.59375 C-15.23429056 149.242497 -32.08275888 143.22621281 -46.625 132.4375 C-47.62660156 131.69693359 -47.62660156 131.69693359 -48.6484375 130.94140625 C-63.36351314 119.18932096 -71.58386052 100.95226965 -74.15234375 82.6875 C-75.85952249 64.27298777 -71.90793261 44.67429433 -60.36035156 29.80957031 C-57.30210512 26.15954766 -54.00550608 22.78835252 -50.625 19.4375 C-49.99078125 18.76976563 -49.3565625 18.10203125 -48.703125 17.4140625 C-35.93327377 4.9267301 -17.26702604 0.14220949 0 0 Z M-45.625 36.4375 C-55.7426203 49.66683446 -60.22132101 63.79186265 -58.625 80.4375 C-56.13415361 97.31058922 -48.40607302 110.43692701 -35.1875 121.25 C-30.61250603 124.62564659 -25.84888656 127.20918589 -20.625 129.4375 C-19.903125 129.75847656 -19.18125 130.07945312 -18.4375 130.41015625 C-4.20781471 135.72158392 13.08962102 132.9313041 26.5 126.8125 C32.66901018 123.5546175 37.49269921 119.37923749 42.375 114.4375 C43.34759766 113.49777344 43.34759766 113.49777344 44.33984375 112.5390625 C49.66964251 107.0109999 52.46701717 100.46887645 55.375 93.4375 C55.74753906 92.55191406 56.12007813 91.66632813 56.50390625 90.75390625 C61.20041225 78.26499119 59.17237453 62.08192982 53.93359375 50.15625 C45.97937505 34.35854419 33.87057792 23.65063585 17.375 17.4375 C-6.02928444 10.39937705 -29.57917367 18.56178188 -45.625 36.4375 Z " fill="#010000" transform="translate(256.625,2.5625)"/>
<path d="M0 0 C14.84901777 2.70127449 27.76084877 8.86118526 39 19 C39.69609375 19.60328125 40.3921875 20.2065625 41.109375 20.828125 C52.52578363 31.35954071 60.96324545 48.16644335 62.22119141 63.73803711 C63.07994447 86.07475243 59.79698658 104.48797001 45 122 C44.54109375 122.60328125 44.0821875 123.2065625 43.609375 123.828125 C32.42153842 138.10226133 13.54382155 145.84250738 -4 148 C-26.33136887 149.31958089 -45.8509375 142.89637022 -62.75 128.1875 C-74.36586385 117.21512861 -82.12428076 102.71292992 -85 87 C-85.13019531 86.29488281 -85.26039063 85.58976562 -85.39453125 84.86328125 C-88.32703741 65.58694078 -83.20690868 45.84687313 -72 30 C-64.58675153 20.83678396 -55.39322097 10.63316736 -43.8125 7 C-40.35280564 7 -38.74615514 7.95999904 -36 10 C-35 11 -35 11 -34.625 14.25 C-35.00117724 18.01177235 -35.39501316 19.20122597 -38.1875 21.63671875 C-40.52529835 23.39510587 -42.92073694 25.06580018 -45.3125 26.75 C-56.94260736 35.16857638 -65.47899607 47.32974205 -68.5 61.5625 C-68.72143999 63.36912624 -68.88442905 65.18352611 -69 67 C-69.07992188 68.14855469 -69.15984375 69.29710937 -69.2421875 70.48046875 C-69.75026221 84.90082455 -66.14665365 97.12246736 -58 109 C-57.56171875 109.65355469 -57.1234375 110.30710937 -56.671875 110.98046875 C-49.02036883 121.05187898 -35.13915504 128.36922765 -23 131 C-5.52763474 132.57782766 9.60151141 130.74850551 23.828125 119.83984375 C36.05336346 109.4835716 44.14962288 96.12797835 46 80 C47.15473655 62.78024447 42.6520045 47.29535101 31.25 34.0625 C20.22012892 22.75023764 6.41826684 17.00095895 -9.2578125 15.75 C-12.90821826 14.75159842 -14.00706226 13.14846737 -16 10 C-16.5 6.9375 -16.5 6.9375 -16 4 C-11.54685877 -1.64064555 -6.66285599 -0.72699329 0 0 Z " fill="#000101" transform="translate(450,61)"/>
<path d="M0 0 C4.70140506 3.66463233 7.81007734 8.4825581 10.7890625 13.58203125 C11.20542969 14.22398438 11.62179687 14.8659375 12.05078125 15.52734375 C16.76378701 23.96114354 15.98582402 35.12756049 13.9765625 44.28515625 C10.28905223 55.09160995 3.24418786 62.97704392 -6.75390625 68.3984375 C-17.10306599 73.3838038 -27.83454695 74.44900463 -38.87109375 70.62109375 C-51.00948251 65.23075751 -58.13644127 56.65524544 -63.2109375 44.58203125 C-65.81044798 35.61400452 -65.6759262 23.19135909 -61.53515625 14.75 C-55.2947066 4.53333464 -46.9923457 -3.17212029 -35.46875 -6.99609375 C-22.3896769 -9.4399344 -11.19513155 -7.17991652 0 0 Z " fill="#010303" transform="translate(463.2109375,102.41796875)"/>
<path d="M0 0 C9.11195826 5.81280096 14.42570519 14.15211557 17.8125 24.3125 C18.68914853 38.45384683 17.72862784 50.07088099 8.1328125 61.2734375 C1.25385993 68.70491639 -7.6729078 73.70613521 -17.8984375 74.53125 C-31.2209916 74.94222853 -40.55622594 71.16725845 -50.4140625 62.3125 C-59.02195486 53.54341116 -61.9827248 43.09627637 -61.92675781 31.06591797 C-61.43115585 21.12210942 -56.70735836 12.72481046 -50.1875 5.3125 C-35.14519601 -7.38109336 -17.39314639 -9.5845116 0 0 Z " fill="#040201" transform="translate(95.1875,101.6875)"/>
<path d="M0 0 C0.72960937 -0.02835938 1.45921875 -0.05671875 2.2109375 -0.0859375 C9.28075571 1.26396307 12.83018488 6.9061148 16.625 12.4375 C17.76190706 14.05416924 18.89996823 15.67002736 20.0390625 17.28515625 C20.62461914 18.12062988 21.21017578 18.95610352 21.81347656 19.81689453 C24.8114292 24.05039153 27.90944755 28.20891372 31 32.375 C32.1686472 33.96174012 33.33664214 35.5489609 34.50390625 37.13671875 C36.3344702 39.62665875 38.17373978 42.10921901 40.02734375 44.58203125 C40.65769531 45.44183594 41.28804688 46.30164063 41.9375 47.1875 C42.44925781 47.87457031 42.96101563 48.56164062 43.48828125 49.26953125 C45.72418168 53.41094132 45.85067053 56.59179051 44.5625 61.0625 C42.24716258 65.02098011 40.8439687 65.72688825 36.625 67.375 C32.9765625 67.66796875 32.9765625 67.66796875 29.25 67.5625 C28.00476563 67.53542969 26.75953125 67.50835937 25.4765625 67.48046875 C24.53554688 67.44566406 23.59453125 67.41085938 22.625 67.375 C22.67140625 68.17164063 22.7178125 68.96828125 22.765625 69.7890625 C23.13027962 80.49428041 23.13027962 80.49428041 18.625 85.375 C13.45605018 90.21046918 6.92091108 89.55733676 0.25 89.5625 C-0.9875 89.58086914 -0.9875 89.58086914 -2.25 89.59960938 C-7.81367797 89.61285623 -13.58302152 89.62235487 -18.1171875 85.97265625 C-21.54414473 81.32853835 -22.50462693 78.39328908 -22.4375 72.6875 C-22.42847656 71.69363281 -22.41945312 70.69976562 -22.41015625 69.67578125 C-22.39855469 68.91652344 -22.38695312 68.15726562 -22.375 67.375 C-23.78652344 67.42720703 -23.78652344 67.42720703 -25.2265625 67.48046875 C-26.47179687 67.50753906 -27.71703125 67.53460938 -29 67.5625 C-30.84464844 67.61470703 -30.84464844 67.61470703 -32.7265625 67.66796875 C-36.69982471 67.34891665 -39.01788087 66.48673623 -42.375 64.375 C-44.79980989 60.73778517 -45.16652244 58.66342087 -45.0546875 54.3515625 C-43.71831547 48.49917464 -39.61788445 44.04242635 -35.96679688 39.41748047 C-33.66839731 36.46833771 -31.47474122 33.44582734 -29.27148438 30.42529297 C-27.49874343 27.99827966 -25.71241262 25.58187511 -23.921875 23.16796875 C-21.58370023 20.01476209 -19.26216386 16.85037601 -16.953125 13.67578125 C-15.88565356 12.22118029 -14.81795609 10.76674517 -13.75 9.3125 C-13.26547363 8.63977051 -12.78094727 7.96704102 -12.28173828 7.27392578 C-8.63971779 2.34633504 -6.15682745 0.10801452 0 0 Z " fill="#010101" transform="translate(256.375,167.625)"/>
<path d="M0 0 C1.05028885 0.35930603 2.1005777 0.71861206 3.18269348 1.08880615 C4.84024406 1.64057526 4.84024406 1.64057526 6.53128052 2.20349121 C8.85549398 2.9805597 11.17750848 3.76423319 13.49739075 4.55413818 C17.03997212 5.75864022 20.58996704 6.93887675 24.14167786 8.1161499 C26.40582899 8.87644291 28.66951756 9.63811513 30.93269348 10.40130615 C31.98905502 10.75251526 33.04541656 11.10372437 34.13378906 11.46557617 C46.13665347 15.58191676 46.13665347 15.58191676 49.73347473 20.32318115 C50.91715761 24.46607124 51.04766425 28.07824804 49.16316223 31.99505615 C47.11913256 34.84430963 45.08588215 36.39252819 42.17097473 38.32318115 C41.26992004 38.92775146 40.36886536 39.53232178 39.44050598 40.1552124 C38.75343567 40.60251709 38.06636536 41.04982178 37.35847473 41.51068115 C37.79159973 42.21193115 38.22472473 42.91318115 38.67097473 43.63568115 C42.14072156 49.54710168 44.52502997 53.62800525 43.35847473 60.51068115 C40.25187125 66.4347096 35.67074898 69.64226181 30.23347473 73.38568115 C29.02691223 74.27513428 29.02691223 74.27513428 27.79597473 75.18255615 C21.9712258 79.22080062 17.42979991 80.57754275 10.35847473 79.51068115 C5.58091919 77.70582684 2.82489708 73.86627807 0.35847473 69.51068115 C0.35847473 68.85068115 0.35847473 68.19068115 0.35847473 67.51068115 C-0.40336121 68.08818115 -1.16519714 68.66568115 -1.95011902 69.26068115 C-12.34144841 76.73309779 -12.34144841 76.73309779 -18.66496277 76.11224365 C-22.23888755 75.02452741 -24.10056575 73.24221263 -26.64152527 70.51068115 C-27.68130173 67.39135177 -27.74128305 65.31603178 -27.69499207 62.04876709 C-27.68135117 60.93040466 -27.66771027 59.81204224 -27.65365601 58.65979004 C-27.63289505 57.45042786 -27.61213409 56.24106567 -27.59074402 54.99505615 C-27.57187637 53.75072815 -27.55300873 52.50640015 -27.53356934 51.22436523 C-27.49165336 48.58810767 -27.44738431 45.95200294 -27.39958191 43.31585693 C-27.35117528 40.61962368 -27.30958256 37.92343012 -27.27458191 35.22698975 C-27.22287689 31.33696119 -27.15848827 27.44733489 -27.09074402 23.55755615 C-27.07605576 22.35629089 -27.06136749 21.15502563 -27.04623413 19.9173584 C-26.76094362 5.94801225 -26.76094362 5.94801225 -22.14152527 0.63568115 C-15.49320228 -5.01539339 -7.58925438 -2.4825274 0 0 Z " fill="#010101" transform="translate(148.6415252685547,208.48931884765625)"/>
<path d="M0 0 C4.03555342 3.44498463 4.93126609 6.05577931 5.5625 11.1875 C5.68403692 13.13027164 5.76680428 15.07576643 5.81542969 17.02172852 C5.84505798 18.14631973 5.87468628 19.27091095 5.9052124 20.42958069 C5.93133606 21.62973312 5.95745972 22.82988556 5.984375 24.06640625 C6.01227112 25.31123276 6.04016724 26.55605927 6.06890869 27.83860779 C6.12518994 30.46518625 6.17882072 33.09182266 6.22998047 35.71850586 C6.2829207 38.40826103 6.34542336 41.09752911 6.41650391 43.78686523 C6.51675068 47.67154639 6.59669461 51.55616862 6.671875 55.44140625 C6.70609558 56.64358292 6.74031616 57.84575958 6.77557373 59.08436584 C6.79259338 60.2058049 6.80961304 61.32724396 6.82714844 62.48266602 C6.84855896 63.46606461 6.86996948 64.4494632 6.89202881 65.46266174 C6.40824676 69.46300343 4.58641842 72.04543715 1.9375 75 C-1.96668685 76.95209342 -5.18426524 77.20552829 -9.4375 76.1875 C-13.69021087 73.84416952 -17.5711694 71.11832252 -21.4375 68.1875 C-21.71722656 68.95707031 -21.99695313 69.72664063 -22.28515625 70.51953125 C-24.20120003 74.95565973 -27.48037685 77.5494179 -31.4375 80.1875 C-37.08262257 81.2741441 -41.53454668 80.54303408 -46.4296875 77.5546875 C-48.07416505 76.41458645 -49.7018155 75.24986358 -51.3125 74.0625 C-52.14007813 73.49273437 -52.96765625 72.92296875 -53.8203125 72.3359375 C-58.41396032 69.07592937 -61.81830209 66.20937545 -64.4375 61.1875 C-65.36789843 54.88146623 -63.91872919 51.48442915 -60.53125 46.16796875 C-59.19577878 44.12688197 -59.19577878 44.12688197 -59.4375 41.1875 C-61.60061837 39.40680993 -61.60061837 39.40680993 -64.3125 37.75 C-70.05657548 34.09244766 -70.05657548 34.09244766 -71.4375 30.1875 C-71.88974683 26.11727853 -71.76247302 23.82111574 -69.8828125 20.15625 C-66.94672993 16.59167691 -64.19599249 15.43782356 -59.9375 14.0625 C-58.75534912 13.65632446 -58.75534912 13.65632446 -57.54931641 13.24194336 C-55.67044079 12.60079985 -53.78808418 11.96981288 -51.90332031 11.34619141 C-48.54695739 10.22409374 -45.20485871 9.06701113 -41.86383057 7.90032959 C-38.6589786 6.78398836 -35.44930897 5.6819749 -32.23852539 4.58282471 C-30.63126282 4.03107122 -29.0252802 3.47557391 -27.4206543 2.91619873 C-25.12602567 2.11915168 -22.82580277 1.34077805 -20.5234375 0.56640625 C-19.8426413 0.32613205 -19.16184509 0.08585785 -18.4604187 -0.16169739 C-12.13397038 -2.25252425 -6.03241459 -3.18072769 0 0 Z " fill="#000100" transform="translate(385.4375,207.8125)"/>
<path d="M0 0 C7.53250928 6.13876016 13.80848954 14.51470795 14.92675781 24.35546875 C15.9241004 37.66079888 14.2829163 48.11353103 5.5 58.625 C-2.75393651 67.12450818 -12.875462 72.11432458 -24.8125 72.625 C-34.24124613 72.22163118 -42.78857761 68.90398473 -50.3125 63.25 C-52.77574069 59.55513897 -52.70241688 57.61706908 -52.3125 53.25 C-51.3125 51.3125 -51.3125 51.3125 -49.3125 50.25 C-43.05690363 49.53214468 -40.43104407 50.41109195 -35.3125 54.25 C-28.53722916 56.56278392 -19.90366008 56.29469677 -13.3125 53.625 C-7.81076231 50.75321384 -4.06519942 46.35409848 -1.828125 40.48828125 C-0.11036569 33.03164425 -0.08055311 25.48025347 -3.8125 18.6875 C-7.65164007 13.15622711 -12.65052439 9.51003659 -19.3125 8.25 C-27.62335415 7.57893724 -33.87876276 8.56913563 -41 12.875 C-45.24209213 17.23174327 -47.70965097 22.66799356 -50 28.25 C-51.3125 31.25 -51.3125 31.25 -53.3125 32.25 C-57.46414487 32.71129387 -59.49065817 32.90747347 -62.8125 30.25 C-64.814552 26.245896 -64.5475478 23.40557261 -63.3125 19.25 C-59.41624395 8.92658654 -52.39174623 0.0273379 -42.3125 -4.75 C-28.03017839 -11.11774989 -12.64367012 -8.65474933 0 0 Z " fill="#040202" transform="translate(281.3125,44.75)"/>
<path d="M0 0 C2.875 1.5 2.875 1.5 5 4 C5.42242213 6.80188855 5.23816991 9.1419611 5 12 C5.70125 12.0825 6.4025 12.165 7.125 12.25 C11.52323027 13.39736442 14.80882694 15.80882694 18 19 C18.4375 22.375 18.4375 22.375 18 26 C15.68038996 28.58470833 14.08668098 29.76504195 10.6875 30.5 C8.04138463 30.00769947 6.41528746 29.25243439 4.0625 28 C0.53067105 26.13764199 -1.9455425 25.26282591 -6 26 C-8.5 27.5 -8.5 27.5 -10 30 C-10.66666667 33 -10.66666667 33 -10 36 C-6.24694825 41.01067067 -0.50538388 42.24806829 5.18164062 44.1796875 C12.12956566 46.68720932 17.45321561 50.2303979 21.4375 56.5625 C24.37854758 63.16718012 24.11601351 71.50894403 21.875 78.3125 C18.58258915 85.58965109 14.26372446 90.64751179 7 94 C6.34 94 5.68 94 5 94 C5.1546875 95.8253125 5.1546875 95.8253125 5.3125 97.6875 C5.30001411 101.19603622 5.01433029 101.97872169 2.9375 105.0625 C0 107 0 107 -3.625 107.0625 C-7 106 -7 106 -8.9375 104.375 C-10.37148358 101.16962495 -10.20006114 98.46772635 -10 95 C-10.556875 94.85304688 -11.11375 94.70609375 -11.6875 94.5546875 C-18.09627426 92.6710275 -23.24836554 89.75163446 -28 85 C-28.36395977 81.14202645 -28.56007535 78.84011302 -26.375 75.5625 C-23.18183131 73.46173112 -21.77861819 73.34600839 -18 74 C-16.74646257 74.7962029 -15.51890983 75.63404939 -14.3125 76.5 C-9.43600963 79.791631 -4.72130921 79.99384244 1 79 C4.00197464 77.19881522 5.45166366 76.09667268 7 73 C7.35691947 69.21665359 7.4906364 66.82990625 5.53125 63.515625 C2.14934817 60.1545991 -1.4234137 58.79175009 -5.8125 57.0625 C-14.10598609 53.78749601 -21.56622362 49.86333882 -25.33984375 41.3359375 C-27.07929925 35.1809411 -27.04405078 28.51512774 -24.4375 22.625 C-21.75134281 18.03654644 -17.76252955 14.17821133 -12.84765625 12.08203125 C-10.84618069 11.16567464 -10.84618069 11.16567464 -10.27734375 9.16015625 C-10.16519531 8.46792969 -10.05304688 7.77570313 -9.9375 7.0625 C-9.42544813 4.65104204 -9.06665101 3.10664161 -7.75 1 C-4.99846091 -0.57230805 -3.11017622 -0.43542467 0 0 Z " fill="#040301" transform="translate(259,337)"/>
<path d="M0 0 C5.76540814 5.35472153 8.13032606 10.96249942 8.4375 18.8125 C8.10123671 27.23725858 5.60697222 33.6138879 -0.625 39.375 C-7.10856713 44.74933035 -15.19946712 44.54149838 -23.1875 43.875 C-26.98655854 42.87184144 -29.91781511 41.05478993 -33.1875 38.875 C-36.60767557 38.47541513 -40.06043041 38.3114652 -43.1875 39.875 C-46.84625889 33.31157756 -49.12537671 27.32571559 -50.1875 19.875 C-48.6096875 19.75125 -48.6096875 19.75125 -47 19.625 C-44.98071504 19.1786121 -44.98071504 19.1786121 -43.1875 17.875 C-41.60576402 14.94944933 -40.50853861 11.97853338 -39.359375 8.859375 C-36.75303319 2.22189119 -32.45993504 -1.04580462 -26.1875 -4.125 C-16.8840531 -7.03353102 -7.92641596 -5.2842773 0 0 Z " fill="#DF5E77" transform="translate(273.1875,57.125)"/>
<path d="M0 0 C5.93009224 3.57309997 11.10060712 8.32743816 13.18359375 15.07421875 C14.68322898 23.1032392 14.73900504 30.52571359 10.16796875 37.50390625 C4.78194741 44.2534773 -1.08531859 47.44264705 -9.59765625 48.7890625 C-16.03092606 49.22021638 -21.12286402 47.05159357 -26.375 43.4375 C-31.91036968 38.28000611 -35.56115973 33.64328571 -35.85766602 25.90380859 C-35.92525022 17.74991677 -35.20046769 11.67738105 -29.375 5.4375 C-21.12348769 -1.3966607 -10.31272763 -4.7410182 0 0 Z " fill="#62AAD9" transform="translate(449.375,111.5625)"/>
<path d="M0 0 C2.81019477 1.76723588 4.7896503 3.61877398 6.89453125 6.19140625 C7.35988281 6.69800781 7.82523438 7.20460938 8.3046875 7.7265625 C12.67190501 13.26161533 12.81345422 19.55281684 12.4453125 26.33203125 C11.6564708 31.85951776 9.73872092 35.22406176 5.89453125 39.19140625 C5.40339844 39.70058594 4.91226563 40.20976562 4.40625 40.734375 C-1.3786938 46.05153359 -7.57889503 47.84428907 -15.26171875 47.6015625 C-22.56474013 46.54824211 -28.49664209 42.84653245 -32.921875 36.9921875 C-37.70518949 29.71460341 -38.26274303 22.34268395 -36.671875 13.88671875 C-34.53993923 7.0804145 -29.44233024 2.33087089 -23.41796875 -1.24609375 C-15.82564339 -4.64498359 -7.25975184 -3.75414194 0 0 Z " fill="#FC8F60" transform="translate(86.10546875,113.80859375)"/>
<path d="M0 0 C0 0.66 0 1.32 0 2 C-1.66073326 3.00982316 -3.32893021 4.00737544 -5 5 C-7.00807658 6.71808187 -8.95172498 8.44311914 -10.875 10.25 C-11.40528809 10.7459668 -11.93557617 11.24193359 -12.48193359 11.75292969 C-13.52827654 12.73429631 -14.57278031 13.7176284 -15.61523438 14.703125 C-16.72041654 15.73816162 -17.84872773 16.7484843 -18.984375 17.75 C-35.9066852 33.22182647 -46.77963973 59.67059875 -48.20483398 82.24438477 C-48.30337051 85.72826522 -48.32915065 89.20228115 -48.3125 92.6875 C-48.30404053 94.54133301 -48.30404053 94.54133301 -48.29541016 96.43261719 C-47.88478882 127.40403639 -34.57011466 154.20656307 -12.62890625 175.6171875 C-9.68735908 178.28337438 -6.65155788 180.65816632 -3.36328125 182.87890625 C-2.91339844 183.24886719 -2.46351563 183.61882812 -2 184 C-2 184.66 -2 185.32 -2 186 C-22.79682092 178.28505031 -40.35220073 159.09838981 -49.82421875 139.34765625 C-51.32371045 135.9294195 -52.69890982 132.49821416 -54 129 C-54.38929688 127.97003906 -54.77859375 126.94007813 -55.1796875 125.87890625 C-64.1352764 100.74442501 -61.38505385 74.1288426 -51 50 C-50.67 49.34 -50.34 48.68 -50 48 C-49.93049459 46.45976004 -49.91547643 44.91665012 -49.9375 43.375 C-49.94652344 42.55773437 -49.95554688 41.74046875 -49.96484375 40.8984375 C-49.97644531 40.27195312 -49.98804688 39.64546875 -50 39 C-50.99 38.67 -51.98 38.34 -53 38 C-50.76864083 31.92759469 -47.77072484 26.4387812 -43 22 C-40.02766208 21.49325471 -37.57598631 21.73577195 -34.5859375 22.04296875 C-31.99545096 22.22965367 -31.99545096 22.22965367 -30.1640625 20.80078125 C-29.05893049 19.60130871 -27.98075785 18.3766274 -26.92578125 17.1328125 C-21.35601647 10.96426976 -8.7820102 0 0 0 Z " fill="#FACC62" transform="translate(213,297)"/>
<path d="M0 0 C-0.85722656 0.56847656 -1.71445313 1.13695312 -2.59765625 1.72265625 C-20.6705918 13.85235612 -32.59060507 29.95235465 -37.26953125 51.5625 C-40.97865685 71.65773835 -36.71542907 91.75515163 -26 109 C-19.02727261 119.01402338 -10.5216964 126.87828573 0 133 C-0.66 133.33 -1.32 133.66 -2 134 C-4.56025412 132.93902102 -6.97501944 131.8199789 -9.4375 130.5625 C-10.15744141 130.19632568 -10.87738281 129.83015137 -11.61914062 129.45288086 C-28.94961365 120.42627075 -40.92917674 107.29964695 -47.375 88.75 C-47.9433975 86.8410898 -48.48713994 84.92457487 -49 83 C-49.22429687 82.19433594 -49.44859375 81.38867188 -49.6796875 80.55859375 C-54.09114505 62.21780793 -49.63822879 43.8355909 -40 28 C-34.12386453 19.65309459 -12.09541919 -6.04770959 0 0 Z " fill="#F8BD4E" transform="translate(237,324)"/>
<path d="M0 0 C0.77298951 5.45639655 1.13811416 10.71268522 1.09765625 16.21875 C1.0962413 16.96209595 1.09482635 17.70544189 1.09336853 18.47131348 C1.08783109 20.81425229 1.07529091 23.15709073 1.0625 25.5 C1.05747689 27.10156111 1.05291542 28.70312373 1.04882812 30.3046875 C1.03788227 34.20316288 1.02066196 38.1015645 1 42 C-2.16447328 40.47636472 -5.02543977 38.69443231 -7.92578125 36.70703125 C-11.33236723 35.54584093 -13.56790426 36.01833069 -17 37 C-19.00758973 39.22638449 -20.41614427 41.05160158 -21.9375 43.5625 C-22.33517578 44.17802734 -22.73285156 44.79355469 -23.14257812 45.42773438 C-24.11503852 46.93914872 -25.06033374 48.46798177 -26 50 C-29.63 47.69 -33.26 45.38 -37 43 C-35.43791991 39.09479977 -34.27195699 36.81055042 -31.875 33.5625 C-30.04460667 30.83272822 -29.00739343 29.02900499 -28.1875 25.8125 C-29.71754156 20.51620228 -34.59414229 17.93723847 -39 15 C-39 14.34 -39 13.68 -39 13 C-33.60719075 11.14666022 -28.21370802 9.29529903 -22.81958008 7.44580078 C-20.98312847 6.81581641 -19.14686495 6.18528346 -17.31079102 5.55419922 C-14.67773437 4.64928577 -12.04401643 3.74632156 -9.41015625 2.84375 C-8.58411392 2.55939087 -7.75807159 2.27503174 -6.90699768 1.98205566 C-1.11387171 0 -1.11387171 0 0 0 Z " fill="#ABEAA1" transform="translate(375,222)"/>
<path d="M0 0 C13 4.33333333 26 8.66666667 39 13 C37.84172638 16.47482085 36.911812 17.05553362 34 19.125 C31.38851475 20.93010011 31.38851475 20.93010011 29 23 C28.36291427 28.38770033 29.8998236 30.90730844 33.0625 35.1875 C35.34765625 38.29296875 35.34765625 38.29296875 37 41 C35.72648692 44.82053924 34.37362475 45.23021375 30.9375 47.1875 C30.01839844 47.71730469 29.09929687 48.24710937 28.15234375 48.79296875 C27.44207031 49.19128906 26.73179687 49.58960938 26 50 C25.37351563 49.07316406 24.74703125 48.14632812 24.1015625 47.19140625 C23.27627585 45.98161105 22.45074218 44.77198433 21.625 43.5625 C21.2125 42.95083984 20.8 42.33917969 20.375 41.70898438 C18.18904598 38.32135329 18.18904598 38.32135329 15 36 C11.73147386 35.45524564 9.72235886 35.53946266 6.8984375 37.33984375 C5.48919421 38.42880447 4.09993621 39.54423945 2.734375 40.6875 C1 42 1 42 -1 42 C-1.02488717 37.30436582 -1.04294796 32.60877081 -1.05493164 27.91308594 C-1.05993231 26.31867808 -1.06673501 24.72427475 -1.07543945 23.12988281 C-1.0876933 20.82616046 -1.0932711 18.52249922 -1.09765625 16.21875 C-1.10281754 15.51633179 -1.10797882 14.81391357 -1.11329651 14.09020996 C-1.11382708 9.31279059 -0.67025518 4.73121306 0 0 Z " fill="#ADEDA3" transform="translate(138,222)"/>
<path d="M0 0 C3.71099784 3.52708998 6.76790316 7.22578831 9.6875 11.4375 C10.55314945 12.66943668 11.41904262 13.90120212 12.28515625 15.1328125 C12.72746582 15.76477539 13.16977539 16.39673828 13.62548828 17.04785156 C15.02750798 19.03906817 16.44625292 21.01724683 17.87109375 22.9921875 C18.33233643 23.6322876 18.7935791 24.2723877 19.26879883 24.93188477 C20.16187061 26.17028836 21.0562076 27.4077807 21.9519043 28.64428711 C25 32.88829226 25 32.88829226 25 34 C24.10796875 34.02578125 23.2159375 34.0515625 22.296875 34.078125 C21.12640625 34.13484375 19.9559375 34.1915625 18.75 34.25 C17.58984375 34.29640625 16.4296875 34.3428125 15.234375 34.390625 C12.00371349 34.79376107 12.00371349 34.79376107 9.625 36.5 C7.25132407 40.15180912 7.32797674 43.47545689 7.25 47.75 C7.20552734 48.93916016 7.20552734 48.93916016 7.16015625 50.15234375 C7.08972213 52.10102094 7.04256518 54.05051495 7 56 C2.71 56 -1.58 56 -6 56 C-6.01417969 54.81921875 -6.02835938 53.6384375 -6.04296875 52.421875 C-6.08987629 50.86454458 -6.13812365 49.3072541 -6.1875 47.75 C-6.19330078 46.97269531 -6.19910156 46.19539063 -6.20507812 45.39453125 C-6.3576902 41.42661717 -6.49617875 39.58414058 -9.15625 36.5 C-12.38766885 34.79551533 -14.67626334 34.40983458 -18.3125 34.25 C-19.38113281 34.19328125 -20.44976562 34.1365625 -21.55078125 34.078125 C-22.35902344 34.05234375 -23.16726562 34.0265625 -24 34 C-21.4310745 29.31376375 -18.70402237 25.13944191 -15.375 20.9375 C-10.02402377 14.1156633 -4.9932179 7.08611987 0 0 Z " fill="#ADECA3" transform="translate(256,185)"/>
<path d="M0 0 C0.350625 0.94875 0.70125 1.8975 1.0625 2.875 C2.72312649 6.23696743 2.72312649 6.23696743 6.0625 7.25 C7.36999733 7.52496725 8.68355432 7.77168654 10 8 C10.88429688 8.18304688 11.76859375 8.36609375 12.6796875 8.5546875 C15.11613476 9.05854203 17.55539663 9.53764041 20 10 C20 10.33 20 10.66 20 11 C19.05640625 11.09796875 18.1128125 11.1959375 17.140625 11.296875 C-0.6212434 13.36552634 -18.34234016 19.34300888 -30.27539062 33.51464844 C-43.07797978 50.05720655 -48.16374757 67.62991532 -45.578125 88.38671875 C-44.88745385 92.30575431 -43.97929298 96.14458531 -43 100 C-49.71561907 93.98451994 -53.03033268 83.86357873 -54 75 C-54.94325561 56.9978664 -51.62397301 41.43304134 -39.6875 27.5 C-35.67731955 23.36450141 -31.24073592 20.01752653 -26.48046875 16.7890625 C-22.43073403 13.86815148 -20.25015713 12.25078566 -19.25 7.25 C-19.1675 6.1775 -19.085 5.105 -19 4 C-6.49685535 0 -6.49685535 0 0 0 Z " fill="#63AAD9" transform="translate(434,68)"/>
<path d="M0 0 C1.17233279 3.71521144 0.52921305 6.10891202 -0.49755859 9.85009766 C-1.30282829 13.29577546 -1.3403714 16.66217783 -1.3125 20.1875 C-1.30831055 20.92363525 -1.30412109 21.65977051 -1.29980469 22.41821289 C-1.16139892 29.2140835 -0.00705485 35.49888756 2 42 C2.25523438 42.84691406 2.51046875 43.69382813 2.7734375 44.56640625 C8.38408879 60.6005152 20.31528133 72.16486487 35 80 C43.49244641 83.77960527 51.04906816 85.95648109 60.3125 86.5625 C62.19388672 86.68818359 62.19388672 86.68818359 64.11328125 86.81640625 C65.06589844 86.87699219 66.01851563 86.93757813 67 87 C62.18321416 91.81678584 52.82348689 90.31001639 46.44189453 90.31469727 C32.24119613 90.11736804 19.18065645 84.46184752 8.6484375 74.77734375 C-3.99735803 61.14265899 -10.01314993 44.46698215 -9.3515625 25.93359375 C-8.49833861 16.38696641 -5.07840389 8.05468157 0 0 Z " fill="#F98E5F" transform="translate(24,104)"/>
<path d="M0 0 C0 0.66 0 1.32 0 2 C-1.27546212 3.00710248 -2.59812145 3.95460654 -3.9375 4.875 C-15.26177875 13.49284735 -22.96121087 27.17975355 -26 41 C-26.28067493 45.14937807 -26.27929472 49.28009095 -26.25 53.4375 C-26.25773438 54.53126953 -26.26546875 55.62503906 -26.2734375 56.75195312 C-26.23305775 73.51964235 -19.55791359 89.53792744 -7.75 101.5625 C-5.55418772 103.67487142 -3.55186454 105.29875698 -1 107 C-1 107.66 -1 108.32 -1 109 C-13.6440662 105.32914207 -24.33110614 94.86672985 -30.6875 83.5703125 C-38.11438051 69.02600483 -40.70665608 52.91803314 -36.09765625 36.96875 C-30.23661459 21.11682237 -19.65325437 9.25954345 -4.79296875 1.27734375 C-2 0 -2 0 0 0 Z " fill="#DE5E76" transform="translate(236,22)"/>
<path d="M0 0 C2.31 0.66 4.62 1.32 7 2 C6.67 2.66 6.34 3.32 6 4 C5.97390854 6.50738963 6.00568668 8.98739646 6.078125 11.4921875 C6.1053872 13.01690575 6.13138947 14.54164695 6.15625 16.06640625 C6.1994815 18.47214093 6.25005066 20.87668733 6.32226562 23.28173828 C6.38895565 25.60207466 6.42366526 27.92111841 6.453125 30.2421875 C6.48206848 30.95897675 6.51101196 31.67576599 6.54083252 32.41427612 C6.56127476 36.2355479 6.29817894 37.69170406 3.59667969 40.48486328 C1 42 1 42 -1 42 C-1.02488717 37.30436582 -1.04294796 32.60877081 -1.05493164 27.91308594 C-1.05993231 26.31867808 -1.06673501 24.72427475 -1.07543945 23.12988281 C-1.0876933 20.82616046 -1.0932711 18.52249922 -1.09765625 16.21875 C-1.10281754 15.51633179 -1.10797882 14.81391357 -1.11329651 14.09020996 C-1.11382708 9.31279059 -0.67025518 4.73121306 0 0 Z " fill="#84D399" transform="translate(138,222)"/>
<path d="M0 0 C0.99 0.99 1.98 1.98 3 3 C-1.82028312 10.95784923 -7.15341621 18.47467415 -12.64331055 25.97998047 C-13.19156494 26.73037598 -13.73981934 27.48077148 -14.3046875 28.25390625 C-14.79952637 28.92752197 -15.29436523 29.6011377 -15.80419922 30.29516602 C-17.05879392 31.99468018 -17.05879392 31.99468018 -18 34 C-19.98 34 -21.96 34 -24 34 C-21.4310745 29.31376375 -18.70402237 25.13944191 -15.375 20.9375 C-10.02402377 14.1156633 -4.9932179 7.08611987 0 0 Z " fill="#87D89D" transform="translate(256,185)"/>
<path d="M0 0 C0.495 1.98 0.495 1.98 1 4 C-2.67969271 5.37118266 -6.36014255 6.74031209 -10.04125977 8.10766602 C-11.89833878 8.79794374 -13.75483991 9.48977553 -15.61132812 10.18164062 C-17.9846072 11.06277676 -20.36005631 11.93809335 -22.73779297 12.80712891 C-24.75751809 13.54566931 -26.77312866 14.2957078 -28.78173828 15.06396484 C-31.19140625 15.94921875 -31.19140625 15.94921875 -35 17 C-35.99 16.34 -36.98 15.68 -38 15 C-38 14.34 -38 13.68 -38 13 C-19.19 6.565 -19.19 6.565 0 0 Z " fill="#85D59B" transform="translate(374,222)"/>
<path d="M0 0 C3.21848314 0.67363601 3.54213435 1.32919119 5.375 3.9375 C5.77074219 4.56398438 6.16648438 5.19046875 6.57421875 5.8359375 C7.7008498 7.71657632 7.7008498 7.71657632 9.6875 9.5625 C7.3775 10.8825 5.0675 12.2025 2.6875 13.5625 C0.3775 9.9325 -1.9325 6.3025 -4.3125 2.5625 C-2.3125 0.5625 -2.3125 0.5625 0 0 Z " fill="#88DA9F" transform="translate(161.3125,258.4375)"/>
<path d="M0 0 C1.65 0 3.3 0 5 0 C6 1 6 1 6.09765625 3.94140625 C6.08605469 5.13636719 6.07445312 6.33132812 6.0625 7.5625 C6.05347656 8.76003906 6.04445313 9.95757812 6.03515625 11.19140625 C6.02355469 12.11824219 6.01195312 13.04507813 6 14 C4.02 14 2.04 14 0 14 C0 9.38 0 4.76 0 0 Z " fill="#8CE1A4" transform="translate(250,227)"/>
<path d="M0 0 C1.32 0.99 2.64 1.98 4 3 C3.49325789 7.43399343 1.89488631 9.66649455 -1 13 C-1.99 14.485 -1.99 14.485 -3 16 C-4.32 15.01 -5.64 14.02 -7 13 C-5.35821735 8.22390502 -2.73453298 4.20617096 0 0 Z " fill="#87D89D" transform="translate(345,252)"/>
</svg>
